<svg width="1920" height="815" viewBox="0 0 1920 815" fill="none" xmlns="http://www.w3.org/2000/svg">
<g clip-path="url(#clip0_0_175)">
<path fill-rule="evenodd" clip-rule="evenodd" d="M1920 815V718C1873.26 727.26 1817.52 705.41 1769 714.55C1720.87 723.61 1678.61 765.28 1628.49 772.55C1579.85 779.64 1525.05 752.19 1474.72 757.55C1425.72 762.78 1379.63 801.05 1329.18 804.55C1279.89 807.99 1227.77 776.61 1177.27 778.34C1127.81 780.04 1078.52 814.94 1028.05 814.94C977.58 814.94 928.3 780.04 878.84 778.34C828.35 776.61 776.23 807.99 726.94 804.55C676.5 801.03 630.42 762.77 581.4 757.55C531.07 752.18 476.28 779.63 427.64 772.55C377.51 765.24 335.25 723.55 287.12 714.55C237.3 705.18 179.93 728.02 132.47 716.87C83.4 705.36 46.11 660.77 0 647V815H1920Z" fill="white"/>
</g>
<defs>
<clipPath id="clip0_0_175">
<rect width="1920" height="168" fill="white" transform="translate(0 647)"/>
</clipPath>
</defs>
</svg>
